<svg width="512" height="512" xmlns="http://www.w3.org/2000/svg">
 <!-- Created with UXWing SVG Editor - https://uxwing.com/svg-icon-editor/ -->

 <g>
  <title>background</title>
  <rect fill="none" id="canvas_background" height="514" width="514" y="-1" x="-1"/>
  <g display="none" overflow="visible" y="0" x="0" height="100%" width="100%" id="canvasGrid">
   <rect fill="url(#gridpattern)" stroke-width="0" y="0" x="0" height="100%" width="100%"/>
  </g>
 </g>
 <g>
  <title>Layer 1</title>
  <g stroke="null" id="svg_5">
   <path stroke="null" fill="#ffffff" id="svg_4" fill-rule="nonzero" d="m481.922643,315.043929c-14.180659,3.868086 -22.952201,0.169405 -30.820274,-12.507754l-55.968284,-83.080723l-8.090285,-11.503871l-65.359681,94.860662c-7.467506,11.412894 -15.300493,16.37584 -29.238472,12.338349l83.695127,-120.544379l-77.920529,-108.886789c13.399992,-2.795187 22.659816,-1.374065 30.881674,11.503871l58.050063,84.115977l58.476945,-83.657956c7.490897,-11.412894 15.546096,-15.748413 28.995793,-11.544654l-30.212113,42.978738l-40.933861,57.186818c-4.874053,6.53465 -4.204492,11.008204 0.280689,17.31698l78.163208,111.42473zm-389.745912,-122.451757l6.844726,-36.130374c18.639526,-71.501561 95.025035,-101.213358 147.70399,-57.033099c30.785187,25.984882 38.436896,62.742683 36.913571,103.917568l-173.530333,0c-2.605148,74.114794 47.11195,118.844052 110.495111,96.024539c22.232934,-8.012241 35.328846,-26.693874 41.884112,-50.062386c3.327338,-11.710922 8.830019,-13.543008 19.089799,-10.195686c-5.23661,29.228679 -17.054801,53.644994 -42.030304,68.925974c-37.314138,22.872845 -90.580787,15.475483 -118.597091,-16.313097c-16.692244,-18.446349 -23.586676,-41.814861 -26.680106,-66.808408c-0.488282,-4.131606 -1.461924,-8.065572 -2.192885,-12.024635c0.064325,-6.763661 0.099411,-13.524185 0.099411,-20.287846l0,-0.012549zm18.247731,-4.966083l156.814698,0c-1.023347,-53.591662 -32.12431,-91.657648 -74.631201,-91.980773c-46.658754,-0.392142 -80.163119,36.767212 -82.186422,91.980773l0.002924,0z"/>
  </g>
 </g>
</svg>