<svg width="512" height="512" xmlns="http://www.w3.org/2000/svg">
 <!-- Created with UXWing SVG Editor - https://uxwing.com/svg-icon-editor/ -->

 <g>
  <title>background</title>
  <rect fill="none" id="canvas_background" height="514" width="514" y="-1" x="-1"/>
  <g display="none" overflow="visible" y="0" x="0" height="100%" width="100%" id="canvasGrid">
   <rect fill="url(#gridpattern)" stroke-width="0" y="0" x="0" height="100%" width="100%"/>
  </g>
 </g>
 <g>
  <title>Layer 1</title>
  <g stroke="null" id="svg_12">
   <g stroke="null" transform="matrix(0.209860372746425,0,0,0.2838599915060315,-11289.878926378542,-15474.887954149002) " id="svg_4" fill-rule="evenodd" clip-rule="evenodd">
    <path stroke="null" id="svg_5" d="m53755.042282,54502.131302l2500,0l0,1250l-2500,0l0,-1250z"/>
    <path stroke="null" id="svg_6" fill="#fff" d="m54428.842282,54981.531302l-0.6,-168.1l-93.8,0l0.6,168.1l46.9,64.4l46.9,-64.4zm-93.8,288.1l0,168.7l93.8,0l0,-168.7l-46.9,-64.4l-46.9,64.4z"/>
    <path stroke="null" id="svg_7" fill="#00f2e6" d="m54428.842282,55269.631302l98.8,136.3l75.6,-55l-98.8,-136.3l-75.6,-24.4l0,79.4zm-93.8,-288.1l-99.4,-136.3l-75.6,55l98.8,136.2l76.2,24.4l0,-79.3z"/>
    <path stroke="null" id="svg_8" fill="#00b9f1" d="m54258.842282,55036.531302l-160,-51.9l-28.8,88.7l160,52.5l75.6,-25l-46.8,-64.3zm198.7,113.7l46.9,64.4l160,51.9l28.8,-88.7l-160,-51.9l-75.7,24.3z"/>
    <path stroke="null" id="svg_9" fill="#d63aff" d="m54533.142282,55125.931302l160,-52.5l-28.8,-88.7l-160,51.9l-46.9,64.4l75.7,24.9zm-303.1,0l-160,51.9l28.8,88.7l160,-51.9l46.9,-64.4l-75.7,-24.3z"/>
    <path stroke="null" id="svg_10" fill="#fb015b" d="m54258.842282,55214.631302l-98.8,136.3l75.6,55l99.4,-136.3l0,-79.4l-76.2,24.4zm245.6,-178.1l98.8,-136.3l-75.6,-55l-98.8,136.2l0,79.4l75.6,-24.3z"/>
    <path stroke="null" id="svg_11" fill="#fff" d="m55043.142282,54972.731302l0,218.7c0,48.1 -39.4,87.5 -87.5,87.5l0,-43.8c24.4,0 43.8,-19.4 43.8,-43.8l0,-218.6l43.7,0zm798.8,43.8l98.7,0l0,-43.7l-240.6,0l0,43.7l98.1,0l0,262.5l43.8,0l0,-262.5zm-273.8,-43.8l0,218.7c0,24.4 -19.4,43.8 -43.8,43.8s-43.8,-19.4 -43.8,-43.8l0,-131.2c0,-48.1 -39.4,-87.5 -87.5,-87.5s-87.5,39.4 -87.5,87.5l0,131.3c0,24.4 -19.4,43.8 -43.8,43.8s-43.8,-19.4 -43.8,-43.8l0,-218.8l-43.8,0l0,218.7c0,48.1 39.4,87.5 87.5,87.5s87.5,-39.4 87.5,-87.5l0,-131.2c0,-24.4 19.4,-43.8 43.8,-43.8s43.8,19.4 43.8,43.8l0,131.3c0,48.1 39.4,87.5 87.5,87.5s87.5,-39.4 87.5,-87.5l0,-218.8l-43.6,0z"/>
   </g>
  </g>
 </g>
</svg>