<svg width="512" height="512" xmlns="http://www.w3.org/2000/svg">

 <g>
  <title>background</title>
  <rect fill="none" id="canvas_background" height="514" width="514" y="-1" x="-1"/>
 </g>
 <g>
  <title>Layer 1</title>
  <path id="svg_1" fill="#000000" d="m512,256c0,141.385 -114.615,256 -256,256c-130.445,0 -238.101,-97.562 -253.973,-223.702c-1.337,-10.575 -2.027,-21.358 -2.027,-32.298c0,-20.041 2.299,-39.549 6.656,-58.264c26.373,-113.308 128,-197.736 249.344,-197.736c121.041,0 222.469,84.01 249.135,196.901c3.5,14.764 5.705,30.02 6.51,45.641c0.24,4.461 0.355,8.944 0.355,13.458z"/>
  <polygon id="svg_2" fill="#3B8739" points="243.195,276.559 243.195,210 185.553,176.721 127.912,210 127.912,276.559 185.553,309.838   "/>
  <path id="svg_3" fill="#333333" d="m463.204,265.459l37.564,21.692l-37.564,21.692l-57.637,-33.28l0,-66.56l57.637,-33.28l34.931,20.177c3.5,14.764 5.705,30.02 6.51,45.641l-21.358,12.33l0,-23.186l-20.083,-11.588l-20.083,11.588l0,23.186l20.083,11.588z"/>
  <polygon id="svg_4" fill="#66A060" points="481.392,249.74 481.392,236.82 470.203,230.36 459.013,236.82 459.013,249.74   470.203,256.201 "/>
  <path id="svg_5" fill="#333333" d="m106.686,210.004l0,87.771l-38.442,-21.932l0,-44.993l-19.194,-11.087l-19.195,11.086l0,44.993l-21.828,12.456c-1.337,-10.575 -2.027,-21.358 -2.027,-32.298c0,-20.041 2.299,-39.549 6.656,-58.264l36.394,-21.013l57.636,33.281z"/>
  <rect id="svg_6" fill="#6DA75D" height="66.557" width="115.281" transform="matrix(0.5,0.866,-0.866,0.5,303.4564,-39.0495) " y="210.001" x="127.906"/>
  <polygon id="svg_7" fill="#55A344" points="127.912,276.559 147.704,244.283 127.912,210 "/>
  <polygon id="svg_8" fill="#639D57" points="223.979,243.277 243.195,210 185.553,176.721 "/>
  <path id="svg_9" fill="#333333" d="m346.551,99.579l0,88.304l-19.32,-11.16l-57.647,33.28l0,66.56l57.647,33.28l57.637,-33.28l0,-156.473l-38.317,-20.511zm-0.105,154.791l-19.216,11.097l-19.216,-11.097l0,-22.183l19.216,-11.097l19.216,11.097l0,22.183z"/>
  <g id="svg_10">
   <path id="svg_11" fill="#66A060" d="m282.149,358.717c0,0 -1.132,-9.729 -11.539,-9.729c-10.408,0 -17.534,1.357 -17.534,7.127s20.25,5.77 27.943,8.032c7.693,2.262 14.48,8.145 11.086,18.553c-3.394,10.408 -13.802,11.539 -29.866,11.539s-19.685,-13.35 -19.685,-18.553l9.05,0c0,0 -1.132,8.145 9.502,9.502c10.634,1.357 20.802,2.121 22.173,-6.108c1.81,-10.861 -34.391,-5.43 -37.559,-16.064c-2.676,-8.985 -1.132,-20.815 16.969,-22.626c18.101,-1.811 28.056,6.181 28.056,18.101l-8.596,0.226z"/>
   <path id="svg_12" fill="#66A060" d="m194.723,401.131l20.008,11.551c10.053,5.804 22.619,-1.451 22.619,-13.059l0,-20.242l0,-37.253l-8.155,0l0,55.227c0,6.339 -6.862,10.302 -12.353,7.131l-13.965,-8.062l0,-58.94l51.043,-29.467l51.043,29.467l0,58.94l-51.043,29.467l-14.704,-8.489l-9.602,3.872l24.305,14.033l59.198,-34.179l0,-68.351l-59.197,-34.177l-59.198,34.179l0,68.352l0.001,0z"/>
  </g>
  <g id="svg_13"/>
  <g id="svg_14"/>
  <g id="svg_15"/>
  <g id="svg_16"/>
  <g id="svg_17"/>
  <g id="svg_18"/>
  <g id="svg_19"/>
  <g id="svg_20"/>
  <g id="svg_21"/>
  <g id="svg_22"/>
  <g id="svg_23"/>
  <g id="svg_24"/>
  <g id="svg_25"/>
  <g id="svg_26"/>
  <g id="svg_27"/>
 </g>
</svg>